<svg width="32" height="32" viewBox="0 0 32 32" fill="none" xmlns="http://www.w3.org/2000/svg">
<path d="M32 0V32H0V0H32ZM0.627451 31.3725H31.3725V0.627451H0.627451V31.3725Z" fill="#C9A96E"/>
<path d="M28.6536 3.34641V28.6536H3.34641V3.34641H28.6536ZM3.55556 28.4444H28.4444V3.55556H3.55556V28.4444Z" fill="#9B7A45"/>
<path d="M21.1242 15.7908C21.1242 13.0764 18.9236 10.8758 16.2092 10.8758C13.4947 10.8758 11.2941 13.0764 11.2941 15.7908C11.2941 18.5053 13.4947 20.7059 16.2092 20.7059V21.3333C13.1481 21.3333 10.6667 18.8519 10.6667 15.7908C10.6667 12.7298 13.1481 10.2484 16.2092 10.2484C19.2702 10.2484 21.7516 12.7298 21.7516 15.7908C21.7516 18.8519 19.2702 21.3333 16.2092 21.3333V20.7059C18.9236 20.7059 21.1242 18.5053 21.1242 15.7908Z" fill="#C9A96E"/>
<path d="M17.7778 15.7908C17.7778 16.6572 17.0755 17.3595 16.2092 17.3595C15.3428 17.3595 14.6405 16.6572 14.6405 15.7908C14.6405 14.9245 15.3428 14.2222 16.2092 14.2222C17.0755 14.2222 17.7778 14.9245 17.7778 15.7908Z" fill="#C9A96E"/>
<path d="M16.1046 5.85621H16.732V10.4575H16.1046V5.85621Z" fill="#C9A96E"/>
<path d="M26.2494 16.2081V15.5807H21.6481V16.2081H26.2494Z" fill="#C9A96E"/>
<path d="M16.1046 21.1242H16.732V25.7255H16.1046V21.1242Z" fill="#C9A96E"/>
<path d="M10.7723 16.2081V15.5807H6.17098V16.2081H10.7723Z" fill="#C9A96E"/>
</svg>
