<svg width="127" height="32" viewBox="0 0 127 32" fill="none" xmlns="http://www.w3.org/2000/svg">
<g clip-path="url(#clip0_52_2)">
<path d="M32 0V32H0V0H32ZM0.627451 31.3725H31.3725V0.627451H0.627451V31.3725Z" fill="#C9A96E"/>
<path d="M28.6536 3.34641V28.6536H3.34641V3.34641H28.6536ZM3.55556 28.4444H28.4444V3.55556H3.55556V28.4444Z" fill="#9B7A45"/>
<path d="M21.1242 15.7908C21.1242 13.0764 18.9236 10.8758 16.2092 10.8758C13.4947 10.8758 11.2941 13.0764 11.2941 15.7908C11.2941 18.5053 13.4947 20.7059 16.2092 20.7059V21.3333C13.1481 21.3333 10.6667 18.8519 10.6667 15.7908C10.6667 12.7298 13.1481 10.2484 16.2092 10.2484C19.2702 10.2484 21.7516 12.7298 21.7516 15.7908C21.7516 18.8519 19.2702 21.3333 16.2092 21.3333V20.7059C18.9236 20.7059 21.1242 18.5053 21.1242 15.7908Z" fill="#C9A96E"/>
<path d="M17.7778 15.7908C17.7778 16.6572 17.0755 17.3595 16.2092 17.3595C15.3428 17.3595 14.6405 16.6572 14.6405 15.7908C14.6405 14.9245 15.3428 14.2222 16.2092 14.2222C17.0755 14.2222 17.7778 14.9245 17.7778 15.7908Z" fill="#C9A96E"/>
<path d="M16.1046 5.85621H16.732V10.4575H16.1046V5.85621Z" fill="#C9A96E"/>
<path d="M26.2494 16.2081V15.5807H21.6481V16.2081H26.2494Z" fill="#C9A96E"/>
<path d="M16.1046 21.1242H16.732V25.7255H16.1046V21.1242Z" fill="#C9A96E"/>
<path d="M10.7723 16.2081V15.5807H6.17098V16.2081H10.7723Z" fill="#C9A96E"/>
</g>
<g clip-path="url(#clip1_52_2)">
<path d="M126.106 24H115.582C115.548 24 115.532 23.9498 115.532 23.8493C115.532 23.7488 115.548 23.6986 115.582 23.6986C116.201 23.6986 116.662 23.6567 116.963 23.573C117.265 23.4893 117.466 23.3218 117.566 23.0706C117.683 22.8195 117.742 22.4511 117.742 21.9655V10.3359C117.742 9.85034 117.683 9.49032 117.566 9.25589C117.466 9.00471 117.265 8.83726 116.963 8.75353C116.662 8.65306 116.201 8.60283 115.582 8.60283C115.548 8.60283 115.532 8.55259 115.532 8.45212C115.532 8.35165 115.548 8.30141 115.582 8.30141H125.679C125.83 8.30141 125.905 8.37677 125.905 8.52747L125.955 11.617C125.955 11.6672 125.905 11.7007 125.805 11.7174C125.721 11.7174 125.679 11.6923 125.679 11.6421C125.629 10.7378 125.353 10.0429 124.85 9.5573C124.365 9.07169 123.728 8.82889 122.941 8.82889H121.409C120.84 8.82889 120.404 8.87075 120.103 8.95447C119.818 9.0382 119.617 9.19728 119.5 9.43171C119.4 9.66614 119.35 10.0094 119.35 10.4615V21.865C119.35 22.3004 119.4 22.6353 119.5 22.8697C119.617 23.1041 119.81 23.2632 120.078 23.3469C120.363 23.4307 120.781 23.4725 121.334 23.4725H123.343C124.147 23.4725 124.817 23.1879 125.353 22.6185C125.905 22.0324 126.265 21.2454 126.433 20.2575C126.433 20.2072 126.483 20.1905 126.583 20.2072C126.684 20.224 126.734 20.2575 126.734 20.3077C126.667 20.7431 126.609 21.2705 126.558 21.8901C126.525 22.5097 126.508 23.0874 126.508 23.6232C126.508 23.8744 126.374 24 126.106 24ZM124.7 18.1476C124.7 17.4108 124.515 16.8833 124.147 16.5651C123.795 16.247 123.201 16.0879 122.364 16.0879H118.596V15.5604H122.439C123.243 15.5604 123.812 15.4265 124.147 15.1586C124.499 14.8739 124.674 14.4218 124.674 13.8022C124.674 13.7687 124.725 13.752 124.825 13.752C124.926 13.752 124.976 13.7687 124.976 13.8022C124.976 14.3046 124.968 14.6981 124.951 14.9827C124.951 15.2507 124.951 15.5353 124.951 15.8367C124.951 16.2219 124.959 16.5986 124.976 16.967C124.993 17.3354 125.001 17.7289 125.001 18.1476C125.001 18.1811 124.951 18.1978 124.85 18.1978C124.75 18.1978 124.7 18.1811 124.7 18.1476Z" fill="#C9A96E"/>
<path d="M104.818 24C104.534 24 104.073 23.6818 103.437 23.0455C102.817 22.3925 102.055 21.4631 101.151 20.2575C100.264 19.0351 99.2674 17.595 98.1622 15.9372L99.5688 15.5102C100.992 17.5364 102.198 19.1523 103.186 20.3579C104.19 21.5468 105.07 22.4008 105.823 22.9199C106.593 23.439 107.33 23.6986 108.033 23.6986C108.084 23.6986 108.109 23.7488 108.109 23.8493C108.109 23.9498 108.084 24 108.033 24C107.196 24 106.51 24 105.974 24C105.455 24 105.07 24 104.818 24ZM98.4887 8.22606C99.8283 8.22606 100.85 8.53585 101.553 9.15542C102.273 9.75824 102.633 10.5536 102.633 11.5416C102.633 12.4458 102.365 13.2664 101.829 14.0031C101.31 14.7232 100.615 15.2925 99.7446 15.7111C98.8906 16.1298 97.9529 16.3391 96.9314 16.3391C96.764 16.3391 96.5714 16.3307 96.3537 16.314C96.1528 16.2972 95.9686 16.2805 95.8011 16.2637V21.9655C95.8011 22.4511 95.843 22.8195 95.9267 23.0706C96.0272 23.3218 96.2281 23.4893 96.5295 23.573C96.8477 23.6567 97.3166 23.6986 97.9361 23.6986C97.9864 23.6986 98.0115 23.7488 98.0115 23.8493C98.0115 23.9498 97.9864 24 97.9361 24C97.5342 24 97.0821 23.9916 96.5798 23.9749C96.0942 23.9581 95.5583 23.9498 94.9722 23.9498C94.4196 23.9498 93.8838 23.9581 93.3647 23.9749C92.8623 23.9916 92.4018 24 91.9832 24C91.9497 24 91.933 23.9498 91.933 23.8493C91.933 23.7488 91.9497 23.6986 91.9832 23.6986C92.6028 23.6986 93.0633 23.6567 93.3647 23.573C93.6829 23.4893 93.9005 23.3218 94.0178 23.0706C94.135 22.8195 94.1936 22.4511 94.1936 21.9655V10.3359C94.1936 9.85034 94.135 9.49032 94.0178 9.25589C93.9173 9.00471 93.7163 8.83726 93.4149 8.75353C93.1135 8.65306 92.653 8.60283 92.0335 8.60283C91.9832 8.60283 91.9581 8.55259 91.9581 8.45212C91.9581 8.35165 91.9832 8.30141 92.0335 8.30141C92.4353 8.30141 92.8875 8.31816 93.3898 8.35165C93.8922 8.36839 94.4196 8.37677 94.9722 8.37677C95.4913 8.37677 96.0858 8.35165 96.7556 8.30141C97.4421 8.25118 98.0198 8.22606 98.4887 8.22606ZM100.925 12.27C100.925 11.349 100.783 10.6206 100.498 10.0848C100.23 9.54893 99.8451 9.17216 99.3427 8.95447C98.8404 8.72004 98.2375 8.60283 97.5342 8.60283C96.9147 8.60283 96.4709 8.71167 96.203 8.92936C95.9351 9.14704 95.8011 9.63265 95.8011 10.3862V15.6609C96.0355 15.6944 96.2867 15.7195 96.5546 15.7363C96.8226 15.753 97.0654 15.7614 97.2831 15.7614C98.6394 15.7614 99.5855 15.4683 100.121 14.8823C100.657 14.2794 100.925 13.4087 100.925 12.27Z" fill="#C9A96E"/>
<path d="M71.4416 17.0926L71.6928 16.5903H78.349L78.5248 17.0926H71.4416ZM84.1261 23.6986C84.193 23.6986 84.2265 23.7488 84.2265 23.8493C84.2265 23.9498 84.193 24 84.1261 24C83.6405 24 83.1465 23.9833 82.6441 23.9498C82.1418 23.9163 81.6561 23.8995 81.1873 23.8995C80.6682 23.8995 80.2161 23.9163 79.8309 23.9498C79.4458 23.9833 79.0188 24 78.5499 24C78.4829 24 78.4495 23.9498 78.4495 23.8493C78.4495 23.7488 78.4829 23.6986 78.5499 23.6986C79.4374 23.6986 79.99 23.573 80.2077 23.3218C80.4254 23.0539 80.3668 22.5599 80.0319 21.8399L74.4557 10.0597L75.0837 9.281L70.2108 20.81C69.7922 21.8315 69.7671 22.5683 70.1355 23.0204C70.5039 23.4725 71.2323 23.6986 72.3207 23.6986C72.4044 23.6986 72.4463 23.7488 72.4463 23.8493C72.4463 23.9498 72.4044 24 72.3207 24C71.8184 24 71.3579 23.9833 70.9392 23.9498C70.5206 23.9163 69.9931 23.8995 69.3568 23.8995C68.754 23.8995 68.2684 23.9163 67.9 23.9498C67.5484 23.9833 67.113 24 66.5939 24C66.5269 24 66.4934 23.9498 66.4934 23.8493C66.4934 23.7488 66.5269 23.6986 66.5939 23.6986C67.046 23.6986 67.4395 23.6149 67.7744 23.4474C68.1093 23.2632 68.4191 22.9534 68.7038 22.5181C69.0052 22.0659 69.3317 21.4212 69.6834 20.584L74.9832 8.07535C75.0167 8.02512 75.0753 8 75.159 8C75.2428 8 75.293 8.02512 75.3097 8.07535L81.2375 20.5589C81.6227 21.3794 81.9659 22.0241 82.2673 22.4929C82.5688 22.9451 82.8618 23.2632 83.1465 23.4474C83.4479 23.6149 83.7744 23.6986 84.1261 23.6986Z" fill="#C9A96E"/>
<path d="M56.8854 24C56.6007 24 56.1402 23.6818 55.5039 23.0455C54.8844 22.3925 54.1224 21.4631 53.2182 20.2575C52.3307 19.0351 51.3344 17.595 50.2292 15.9372L51.6358 15.5102C53.0591 17.5364 54.2648 19.1523 55.2527 20.3579C56.2575 21.5468 57.1366 22.4008 57.8901 22.9199C58.6604 23.439 59.3972 23.6986 60.1005 23.6986C60.1507 23.6986 60.1758 23.7488 60.1758 23.8493C60.1758 23.9498 60.1507 24 60.1005 24C59.2632 24 58.5767 24 58.0408 24C57.5217 24 57.1366 24 56.8854 24ZM50.5557 8.22606C51.8953 8.22606 52.9168 8.53585 53.6201 9.15542C54.3401 9.75824 54.7002 10.5536 54.7002 11.5416C54.7002 12.4458 54.4322 13.2664 53.8964 14.0031C53.3773 14.7232 52.6824 15.2925 51.8116 15.7111C50.9576 16.1298 50.0199 16.3391 48.9984 16.3391C48.831 16.3391 48.6384 16.3307 48.4207 16.314C48.2198 16.2972 48.0356 16.2805 47.8681 16.2637V21.9655C47.8681 22.4511 47.91 22.8195 47.9937 23.0706C48.0942 23.3218 48.2951 23.4893 48.5965 23.573C48.9147 23.6567 49.3836 23.6986 50.0031 23.6986C50.0534 23.6986 50.0785 23.7488 50.0785 23.8493C50.0785 23.9498 50.0534 24 50.0031 24C49.6013 24 49.1491 23.9916 48.6468 23.9749C48.1612 23.9581 47.6253 23.9498 47.0392 23.9498C46.4867 23.9498 45.9508 23.9581 45.4317 23.9749C44.9294 23.9916 44.4689 24 44.0502 24C44.0167 24 44 23.9498 44 23.8493C44 23.7488 44.0167 23.6986 44.0502 23.6986C44.6698 23.6986 45.1303 23.6567 45.4317 23.573C45.7499 23.4893 45.9676 23.3218 46.0848 23.0706C46.202 22.8195 46.2606 22.4511 46.2606 21.9655V10.3359C46.2606 9.85034 46.202 9.49032 46.0848 9.25589C45.9843 9.00471 45.7834 8.83726 45.4819 8.75353C45.1805 8.65306 44.72 8.60283 44.1005 8.60283C44.0502 8.60283 44.0251 8.55259 44.0251 8.45212C44.0251 8.35165 44.0502 8.30141 44.1005 8.30141C44.5024 8.30141 44.9545 8.31816 45.4568 8.35165C45.9592 8.36839 46.4867 8.37677 47.0392 8.37677C47.5583 8.37677 48.1528 8.35165 48.8226 8.30141C49.5092 8.25118 50.0869 8.22606 50.5557 8.22606ZM52.9922 12.27C52.9922 11.349 52.8498 10.6206 52.5652 10.0848C52.2972 9.54893 51.9121 9.17216 51.4097 8.95447C50.9074 8.72004 50.3046 8.60283 49.6013 8.60283C48.9817 8.60283 48.5379 8.71167 48.27 8.92936C48.0021 9.14704 47.8681 9.63265 47.8681 10.3862V15.6609C48.1026 15.6944 48.3537 15.7195 48.6217 15.7363C48.8896 15.753 49.1324 15.7614 49.3501 15.7614C50.7064 15.7614 51.6525 15.4683 52.1884 14.8823C52.7242 14.2794 52.9922 13.4087 52.9922 12.27Z" fill="#C9A96E"/>
</g>
<defs>
<clipPath id="clip0_52_2">
<rect width="32" height="32" fill="white"/>
</clipPath>
<clipPath id="clip1_52_2">
<rect width="82.7337" height="16" fill="white" transform="translate(44 8)"/>
</clipPath>
</defs>
</svg>
